PathFileType	4	(X/Y/Z)	E:\Qualisys_Data\Carbon_Farble_Plate\Data\Amateur_Runner\S14\T1\S14T1V12_c3d.trc
DataRate	CameraRate	NumFrames	NumMarkers	Units	OrigDataRate	OrigDataStartFrame	OrigNumFrames
200.000000	200.000000	5	39	mm	200.000000	211	338
Frame#	Time	LSHO			RSHO			LICST			RICST			LASIS			LHEEL			RASIS			LTROC			RTROC			SACR			LTH1			LSK4			LTH2			LTH3			RHM5			LSK2			LTH4			RTH1			LTOE			RTH2			RTH3			RTH4			LLEP			RLEP			LSK1			LSK3			RSK1			LHM5			RSK2			LFT1			RSK3			RSK4			LLME			RLME			RTOE			RHEEL			RFT1			RFT2			LFT2			
		X1	Y1	Z1	X2	Y2	Z2	X3	Y3	Z3	X4	Y4	Z4	X5	Y5	Z5	X6	Y6	Z6	X7	Y7	Z7	X8	Y8	Z8	X9	Y9	Z9	X10	Y10	Z10	X11	Y11	Z11	X12	Y12	Z12	X13	Y13	Z13	X14	Y14	Z14	X15	Y15	Z15	X16	Y16	Z16	X17	Y17	Z17	X18	Y18	Z18	X19	Y19	Z19	X20	Y20	Z20	X21	Y21	Z21	X22	Y22	Z22	X23	Y23	Z23	X24	Y24	Z24	X25	Y25	Z25	X26	Y26	Z26	X27	Y27	Z27	X28	Y28	Z28	X29	Y29	Z29	X30	Y30	Z30	X31	Y31	Z31	X32	Y32	Z32	X33	Y33	Z33	X34	Y34	Z34	X35	Y35	Z35	X36	Y36	Z36	X37	Y37	Z37	X38	Y38	Z38	X39	Y39	Z39	

212	1.055	937.3148803710938	1434.253662109375	-482.5415344238281	1026.091552734375	1428.01123046875	-193.7173156738281	932.4329223632812	985.4741821289062	-461.87158203125	972.3610229492188	980.492431640625	-187.9216003417969	977.0643310546876	937.1832275390624	-438.7203369140625	788.7463989257812	345.9490966796875	-369.6993713378906	994.183349609375	937.2643432617188	-207.8110809326172	849.2919921875	866.6245727539062	-482.7911987304688	842.3846435546875	893.5761108398438	-154.1492462158203	813.1588745117188	989.5287475585938	-318.7294006347656	1063.695434570312	713.17431640625	-494.7259521484375	954.8592529296876	467.8958740234375	-453.2999267578125	1005.226501464844	662.9813842773438	-478.7209777832031	1133.416259765625	641.126953125	-476.9085998535156	659.526123046875	60.28955841064453	-196.4678192138672	1028.548217773438	531.4562377929688	-473.1765441894531	1071.01123046875	591.4938354492188	-463.2425842285156	927.6177368164062	638.3364868164062	-167.6851196289062	965.2523193359376	158.4916839599609	-406.1009826660156	852.9449462890625	657.6053466796875	-156.0840454101562	904.0049438476562	545.9785766601562	-202.0249786376953	824.5628051757812	562.0380859375	-180.8145599365234	1134.1025390625	568.2033081054688	-473.5240478515625	822.7816162109375	487.1288452148438	-192.7119750976562	1083.872924804688	470.3896789550781	-467.3929748535156	1006.146789550781	405.5455017089844	-448.8922424316406	782.3583984375	366.5033264160156	-193.8884582519531	905.512939453125	198.1652374267578	-462.0614318847656	709.8453369140625	411.8435668945312	-184.5479888916016	782.626953125	318.9957275390625	-343.1442260742188	719.63623046875	284.3809509277344	-208.8608703613281	656.875	332.3531799316406	-199.3338928222656	850.0736694335938	328.7001342773438	-430.4442749023438	581.2886962890625	171.1269073486328	-225.6289215087891	726.2657470703125	44.65167236328125	-260.4171447753906	514.444580078125	170.84375	-279.4272766113281	517.0439453125	139.9032897949219	-308.5494384765625	506.4931030273438	149.5859222412109	-252.7480621337891	771.5071411132812	326.7386474609375	-396.3387451171875
213	1.06	951.6590576171876	1439.359130859375	-482.9488525390625	1043.190063476562	1433.335815429688	-195.5688018798828	949.5196533203124	991.230224609375	-462.4755859375	990.5219116210938	984.938232421875	-188.6699371337891	994.3892211914062	942.994140625	-439.4997863769531	815.401123046875	336.4635925292969	-368.5564575195312	1011.915405273438	941.3540649414062	-208.9974517822266	867.1014404296875	872.385498046875	-484.2267456054688	859.3098754882812	898.7327880859375	-154.6367797851562	831.162353515625	994.1259155273438	-319.1748657226562	1081.963623046875	718.4866333007812	-494.8258361816406	976.1328125	465.2686462402344	-452.3753967285156	1023.457641601562	668.3735961914062	-479.2489929199219	1151.697143554688	646.1629638671875	-476.5665588378906	662.8709106445312	61.09523391723633	-195.6111450195312	1046.938842773438	531.8768920898438	-472.2350158691406	1088.720703125	596.9954223632812	-463.9525146484375	939.94189453125	643.0496215820312	-168.2207183837891	998.55224609375	156.3708038330078	-407.0193176269531	865.592041015625	663.680908203125	-156.2622375488281	914.2191162109376	550.4893188476562	-202.1653137207031	834.6939086914062	568.8668212890625	-180.4601440429688	1151.983276367188	573.29248046875	-473.7646789550781	831.5162353515625	492.6375732421875	-192.4911193847656	1104.73779296875	473.3217163085938	-467.4915466308594	1030.244262695312	405.1208801269531	-449.5573425292969	789.6639404296875	373.5930786132812	-193.3683929443359	937.1715087890624	193.8137512207031	-462.200927734375	717.4853515625	418.7837219238281	-184.1906280517578	810.8685302734375	308.8965454101562	-341.729736328125	727.05224609375	290.67724609375	-207.9331512451172	664.7040405273438	339.3156127929688	-198.7706909179688	877.0368041992188	321.7852172851562	-429.2586059570312	589.0235595703125	177.2651672363281	-224.5983581542969	728.2620239257812	44.68692398071289	-259.0044250488281	524.716552734375	180.6967468261719	-278.9226379394531	524.4039916992188	149.1521148681641	-308.3561401367188	513.9194946289062	159.8213958740234	-251.56396484375	798.9085693359375	316.8521728515625	-395.3181762695312
214	1.065	966.1026000976562	1444.476318359375	-483.3761901855469	1060.002563476562	1438.310913085938	-197.7017517089844	966.4534301757812	996.6355590820312	-463.03662109375	1008.749633789062	988.9569091796876	-189.9592437744141	1011.396179199219	948.5450439453124	-440.0428771972656	842.7861328125	327.0176391601562	-367.7364501953125	1029.779907226562	945.3815307617188	-209.9599609375	884.7879638671875	877.8585815429688	-485.4441833496094	876.1098022460938	904.3652954101562	-155.3539276123047	848.589111328125	998.9884643554688	-319.5856018066406	1099.9833984375	723.3407592773438	-495.0040588378906	996.8950805664062	462.7217407226562	-451.0263061523438	1041.289306640625	673.5400390625	-479.6029357910156	1168.547119140625	652.1167602539062	-476.8236999511719	664.7002563476562	62.7419319152832	-194.8142700195312	1065.259033203125	532.5962524414062	-471.2509765625	1106.707763671875	601.6058959960938	-464.3244323730469	952.0948486328124	647.2100219726562	-168.1717681884766	1032.111450195312	154.2034454345703	-408.2190856933594	878.3504028320312	669.257568359375	-156.4105529785156	924.8259887695312	555.4730224609375	-201.70849609375	845.5267333984375	575.1407470703125	-179.6430511474609	1169.668090820312	577.7113037109375	-473.0586242675781	841.0404663085938	499.4011840820312	-192.1073913574219	1124.966552734375	476.2705383300781	-467.7931518554688	1053.500122070312	404.7493286132812	-449.9557800292969	797.7238159179688	380.4141540527344	-191.7173919677734	968.44287109375	189.5086822509766	-462.7725830078125	725.4680786132812	425.8594665527344	-183.6200103759766	839.4671020507812	298.8242797851562	-340.6313781738281	735.0086059570312	297.5169982910156	-205.8837432861328	672.2510986328125	346.3500366210938	-198.519287109375	903.8068237304688	314.9926452636719	-429.0031433105469	597.518310546875	183.5240631103516	-223.5313110351562	730.7241821289062	44.06404495239258	-257.8141174316406	534.14892578125	189.7639923095703	-278.2574157714844	532.9573974609375	158.2759552001953	-308.2117004394531	522.4005126953125	169.1825714111328	-251.3768310546875	826.25537109375	306.1728820800781	-393.4035339355469
215	1.07	980.9248046875	1449.272583007812	-483.7010803222656	1076.688232421875	1443.459350585938	-199.4652709960938	983.6380615234376	1001.967224121094	-463.494873046875	1026.622436523438	993.3678588867188	-190.9766082763672	1028.704345703125	953.7863159179688	-440.7228393554688	870.3231201171875	317.3702392578125	-365.8823547363281	1047.422729492188	949.3187866210938	-211.1905212402344	902.1193237304688	883.1068725585938	-486.5621337890625	893.0584716796875	909.7997436523438	-156.1424713134766	866.0431518554688	1003.899230957031	-319.9327697753906	1117.480102539062	728.0642700195312	-495.1361389160156	1017.906127929688	460.1573181152344	-450.2122497558594	1058.6552734375	678.498046875	-480.3817443847656	1186.103881835938	656.5354614257812	-476.7073364257812	668.2479858398438	64.63378143310547	-193.9187927246094	1083.281860351562	532.3468627929688	-470.2311706542969	1123.658813476562	606.32763671875	-464.9713439941406	964.6693115234376	651.3004150390625	-168.1876678466797	1065.46826171875	152.3404693603516	-409.2367858886719	891.3307495117188	674.4967651367188	-156.2013244628906	935.45263671875	559.1178588867188	-202.6244354248047	856.724609375	581.3687133789062	-179.8199615478516	1186.963500976562	581.6083374023438	-472.7056884765625	850.8751220703125	505.2989807128906	-191.4204864501953	1145.213500976562	478.3240051269531	-467.6596374511719	1076.7041015625	404.3461303710938	-449.7429504394531	805.30908203125	386.5491638183594	-190.9599151611328	1000.183166503906	185.0484008789062	-463.3848876953125	733.6906127929688	432.7047424316406	-183.3717803955078	867.0556640625	289.272216796875	-340.0343017578125	743.7757568359375	304.1568298339844	-204.6453704833984	680.78125	352.9466247558594	-198.2122344970703	930.730712890625	308.2247314453125	-428.4068908691406	606.2392578125	189.7204742431641	-222.9679565429688	733.185302734375	43.42065811157227	-257.059814453125	544.6962280273438	198.8063049316406	-277.8361206054688	542.5772094726562	168.2338256835938	-308.2772827148438	532.0421142578125	178.9882659912109	-251.1883087158203	853.6666259765625	295.9228515625	-392.4940185546875
216	1.075	995.6600341796876	1453.801391601562	-484.2986755371094	1093.39404296875	1448.461059570312	-201.1677093505859	1000.405456542969	1006.643859863281	-464.3482666015625	1045.01806640625	997.6490478515624	-191.9662475585938	1045.545166015625	958.6201171875	-441.6062927246094	897.7591552734375	308.0315551757812	-365.0855102539062	1065.16650390625	953.2655639648438	-212.2245178222656	919.8181762695312	888.2334594726562	-487.867919921875	909.6199340820312	915.2633056640624	-157.1668395996094	883.9205932617188	1008.510009765625	-320.71630859375	1134.775146484375	732.3223876953125	-495.39599609375	1039.108520507812	456.9179992675781	-449.1978454589844	1075.372924804688	682.7379760742188	-480.849609375	1202.936401367188	660.491455078125	-476.2706909179688	672.6369018554688	66.89276123046875	-193.4887542724609	1101.170654296875	532.114990234375	-469.1319274902344	1140.400634765625	610.4863891601562	-464.8503112792969	977.4363403320312	655.9035034179688	-168.1387023925781	1098.879150390625	150.6967620849609	-410.6741333007812	904.317138671875	680.6681518554688	-156.2292022705078	946.3319702148438	564.243408203125	-201.7291107177734	868.29638671875	587.178466796875	-179.1038360595703	1203.65283203125	584.9672241210938	-472.2190246582031	860.896484375	511.5399780273438	-190.7872009277344	1164.990600585938	480.2677612304688	-467.681884765625	1099.511352539062	403.7261657714844	-449.5509643554688	814.73388671875	393.0994567871094	-188.2261047363281	1031.760009765625	181.0102844238281	-463.5509643554688	742.4126586914062	439.7007751464844	-183.2000122070312	896.2474975585938	279.3446655273438	-338.6839599609375	752.9655151367188	311.3032836914062	-203.1791076660156	689.5838623046875	359.5507507324219	-198.1569519042969	958.0720825195312	301.1005859375	-427.3656311035156	615.8807373046875	195.8781585693359	-222.3744506835938	736.2227783203125	42.39122009277344	-256.2171020507812	555.7794189453125	207.9899597167969	-277.5645141601562	552.2423095703125	177.421630859375	-308.17724609375	542.3035278320312	188.7609100341797	-251.0234985351562	881.7490234375	286.2253112792969	-391.2397766113281
